<?xml version="1.0" encoding="utf-8"?>
<!-- Generator: Adobe Illustrator 12.0.0, SVG Export Plug-In . SVG Version: 6.00 Build 51448)  -->
<!DOCTYPE svg PUBLIC "-//W3C//DTD SVG 1.1//EN" "http://www.w3.org/Graphics/SVG/1.1/DTD/svg11.dtd" [
	<!ENTITY ns_svg "http://www.w3.org/2000/svg">
	<!ENTITY ns_xlink "http://www.w3.org/1999/xlink">
]>
<svg  version="1.1" id="レイヤー_1" xmlns="&ns_svg;" xmlns:xlink="&ns_xlink;" width="129.564" height="38.627"
	 viewBox="0 0 129.564 38.627" overflow="visible" enable-background="new 0 0 129.564 38.627" xml:space="preserve">
<g>
	<path fill-rule="evenodd" clip-rule="evenodd" d="M35.519,33.166c0,0.603,0,1.206,0,1.809c-11.621,0-23.241,0-34.861,0
		C0.403,34.681,0.206,34.33,0,33.988c0-0.165,0-0.329,0-0.493c2.249-3.661,4.73-8.33,7.071-12.333
		c0.677-1.158,1.323-3.113,2.96-3.289c1.763,0.703,1.871,3.062,3.125,4.275c2.348-4.23,4.704-8.451,7.235-12.498
		c0.438,0,0.877,0,1.315,0c0,0.055,0,0.11,0,0.165c0.216,0.058,0.258,0.29,0.493,0.329C26.603,17.854,30.982,25.589,35.519,33.166z"
		/>
	<path d="M42.413,30.341c0,1.053-0.794,1.57-1.51,1.57c-0.616,0-1.172-0.398-1.172-1.312c0-1.291,1.232-1.708,2.682-1.708V30.341z
		 M45.811,27.599c0-2.483-0.914-4.828-4.61-4.828c-1.927,0-3.378,0.556-4.093,0.953l0.636,2.266
		c0.715-0.438,1.709-0.755,2.762-0.755c1.41,0,1.788,0.615,1.788,1.469c-3.298,0.021-5.941,1.292-5.941,4.253
		c0,1.888,1.331,3.438,3.358,3.438c1.152,0,2.205-0.398,2.881-1.292h0.06l0.199,1.073h3.139c-0.139-0.676-0.179-1.649-0.179-2.642
		V27.599z"/>
	<path d="M54.792,27.599l3.418-4.61h-4.034l-1.748,3.279c-0.239,0.436-0.438,0.894-0.676,1.47h-0.06V18.18h-3.497v15.996h3.497
		v-3.437l0.696-1.034l2.047,4.471h4.132L54.792,27.599z"/>
	<path d="M62.363,27.42c0.06-0.934,0.517-2.245,1.709-2.245c1.213,0,1.53,1.252,1.53,2.245H62.363z M67.788,31.334
		c-0.795,0.259-1.669,0.437-2.683,0.437c-1.45,0-2.642-0.616-2.722-1.947h6.319c0.08-0.378,0.1-0.933,0.1-1.47
		c0-3.795-1.889-5.583-4.551-5.583c-3.338,0-5.206,2.801-5.206,6c0,3.498,1.987,5.603,5.504,5.603c1.331,0,2.663-0.198,3.696-0.615
		L67.788,31.334z"/>
	<path d="M77.167,22.83c-0.219-0.04-0.397-0.06-0.735-0.06c-0.914,0-2.087,0.616-2.643,2.086h-0.08l-0.139-1.868h-3
		c0.039,1.014,0.079,2.147,0.079,3.617v7.571h3.497v-5.604c0-0.397,0.04-0.795,0.14-1.053c0.298-0.994,1.132-1.411,2.027-1.411
		c0.357,0,0.615,0.02,0.854,0.079V22.83z"/>
	<path d="M85.393,23.366c-0.675-0.318-1.669-0.596-2.821-0.596c-2.623,0-4.293,1.589-4.293,3.696c0,1.152,0.656,2.404,2.802,3.298
		c1.133,0.457,1.451,0.736,1.451,1.272s-0.417,0.835-1.292,0.835c-0.894,0-2.047-0.398-2.603-0.735l-0.596,2.503
		c0.715,0.437,1.967,0.735,3.219,0.735c2.821,0,4.57-1.331,4.57-3.636c-0.02-1.431-0.755-2.583-2.702-3.398
		c-1.232-0.517-1.57-0.794-1.57-1.251c0-0.497,0.397-0.835,1.172-0.835c0.795,0,1.59,0.298,2.067,0.556L85.393,23.366z"/>
	<path d="M91.096,27.52c0-1.192,0.755-1.928,1.57-1.928c1.173,0,1.808,1.153,1.808,3.021c0,1.748-0.615,3.04-1.848,3.04
		c-0.894,0-1.53-0.835-1.53-1.968V27.52z M90.719,24.399l-0.179-1.411h-3.02c0.039,1.073,0.079,2.306,0.079,3.696v11.943h3.497
		v-5.366h0.06c0.397,0.617,1.252,1.133,2.384,1.133c2.186,0,4.471-1.808,4.471-5.901c0-3.339-1.688-5.723-4.152-5.723
		c-1.352,0-2.445,0.596-3.1,1.629H90.719z"/>
	<path d="M105.303,30.341c0,1.053-0.794,1.57-1.51,1.57c-0.616,0-1.172-0.398-1.172-1.312c0-1.291,1.232-1.708,2.682-1.708V30.341z
		 M108.701,27.599c0-2.483-0.914-4.828-4.61-4.828c-1.927,0-3.378,0.556-4.093,0.953l0.636,2.266
		c0.715-0.438,1.709-0.755,2.762-0.755c1.41,0,1.788,0.615,1.788,1.469c-3.298,0.021-5.941,1.292-5.941,4.253
		c0,1.888,1.331,3.438,3.358,3.438c1.152,0,2.205-0.398,2.881-1.292h0.06l0.199,1.073h3.139c-0.139-0.676-0.179-1.649-0.179-2.642
		V27.599z"/>
	<path d="M118.299,31.334c-0.437,0.179-0.954,0.278-1.57,0.278c-1.49,0-2.603-1.092-2.603-3.04c-0.02-1.808,0.994-3.04,2.583-3.04
		c0.696,0,1.173,0.139,1.53,0.258l0.497-2.643c-0.497-0.178-1.331-0.357-2.206-0.357c-3.755,0-5.941,2.543-5.941,5.921
		c0,3.577,2.127,5.663,5.464,5.663c1.094,0,2.087-0.198,2.564-0.417L118.299,31.334z"/>
	<path d="M129.008,33.759c-1.034,0.417-2.365,0.615-3.696,0.615c-3.516,0-5.504-2.105-5.504-5.602c0-3.199,1.869-5.999,5.205-5.999
		c2.663,0,4.551,1.788,4.551,5.582c0,0.537-0.02,1.092-0.099,1.47h-6.319c0.08,1.331,1.272,1.947,2.723,1.947
		c1.013,0,1.887-0.179,2.682-0.437L129.008,33.759z M126.365,27.421c0-0.993-0.318-2.245-1.529-2.245
		c-1.193,0-1.65,1.311-1.709,2.245H126.365z"/>
</g>
<g>
	<path d="M39.929,7.253l4.312-6.617h-4.133l-2.682,4.929c-0.299,0.615-0.597,1.211-0.875,1.828h-0.06V0.636h-3.477v15.36h3.477
		v-4.908l1.014-1.431l2.901,6.339h3.974L39.929,7.253z"/>
	<path d="M50.937,12.161c0,1.053-0.794,1.57-1.51,1.57c-0.616,0-1.172-0.398-1.172-1.312c0-1.291,1.232-1.708,2.682-1.708V12.161z
		 M54.334,9.419c0-2.483-0.914-4.828-4.61-4.828c-1.927,0-3.378,0.556-4.093,0.953l0.636,2.266c0.715-0.438,1.709-0.755,2.762-0.755
		c1.41,0,1.788,0.615,1.788,1.469c-3.298,0.021-5.941,1.292-5.941,4.253c0,1.888,1.331,3.438,3.358,3.438
		c1.152,0,2.205-0.398,2.881-1.292h0.06l0.199,1.073h3.139c-0.139-0.676-0.179-1.649-0.179-2.642V9.419z"/>
	<path d="M72.357,9.2c0-2.98-1.232-4.609-3.418-4.609c-1.728,0-2.742,1.072-3.179,1.708h-0.04c-0.437-1.053-1.431-1.708-2.802-1.708
		c-1.589,0-2.563,0.914-3.08,1.609h-0.059l-0.159-1.392H56.64c0.04,1.054,0.08,2.246,0.08,3.578v7.61h3.437V9.28
		c0-1.431,0.894-1.849,1.411-1.849c0.974,0,1.252,0.955,1.252,2.047v6.518h3.437V9.26c0-1.133,0.577-1.829,1.392-1.829
		c0.953,0,1.271,0.915,1.271,2.326v6.239h3.438V9.2z"/>
	<path d="M78.199,4.809h-3.497v11.187h3.497V4.809z M78.239,1.789C78.239,0.735,77.504,0,76.451,0c-1.033,0-1.789,0.735-1.789,1.789
		c0,1.013,0.736,1.769,1.789,1.769C77.464,3.558,78.239,2.842,78.239,1.789z"/>
	<path d="M86.544,4.809l-1.073,5.505c-0.119,0.615-0.239,1.331-0.358,1.927h-0.059c-0.099-0.596-0.259-1.312-0.418-1.948
		l-1.311-5.484H79.49l3.656,10.273c0.1,0.219,0.139,0.378,0.139,0.498c0,0.655-1.39,2.106-2.841,2.404l0.854,2.98
		c0.735-0.119,1.987-0.556,3.12-1.649c1.212-1.233,2.146-3.12,3.298-6.558l2.445-7.948H86.544z"/>
	<path d="M96.798,12.161c0,1.053-0.794,1.57-1.51,1.57c-0.616,0-1.172-0.398-1.172-1.312c0-1.291,1.232-1.708,2.682-1.708V12.161z
		 M100.196,9.419c0-2.483-0.914-4.828-4.61-4.828c-1.927,0-3.378,0.556-4.093,0.953l0.636,2.266
		c0.715-0.438,1.709-0.755,2.762-0.755c1.41,0,1.788,0.615,1.788,1.469c-3.298,0.021-5.941,1.292-5.941,4.253
		c0,1.888,1.331,3.438,3.358,3.438c1.152,0,2.205-0.398,2.881-1.292h0.06l0.199,1.073h3.139c-0.139-0.676-0.179-1.649-0.179-2.642
		V9.419z"/>
	<path d="M118.219,9.2c0-2.98-1.232-4.609-3.418-4.609c-1.728,0-2.742,1.072-3.179,1.708h-0.04
		c-0.437-1.053-1.431-1.708-2.802-1.708c-1.589,0-2.563,0.914-3.08,1.609h-0.059l-0.159-1.392H102.5
		c0.04,1.054,0.08,2.246,0.08,3.578v7.61h3.437V9.28c0-1.431,0.894-1.849,1.411-1.849c0.974,0,1.252,0.955,1.252,2.047v6.518h3.437
		V9.26c0-1.133,0.577-1.829,1.392-1.829c0.953,0,1.271,0.915,1.271,2.326v6.239h3.438V9.2z"/>
	<path d="M125.987,12.161c0,1.053-0.794,1.57-1.51,1.57c-0.616,0-1.172-0.398-1.172-1.312c0-1.291,1.232-1.708,2.682-1.708V12.161z
		 M129.385,9.419c0-2.483-0.914-4.828-4.61-4.828c-1.927,0-3.378,0.556-4.093,0.953l0.636,2.266
		c0.715-0.438,1.709-0.755,2.762-0.755c1.41,0,1.788,0.615,1.788,1.469c-3.298,0.021-5.941,1.292-5.941,4.253
		c0,1.888,1.331,3.438,3.358,3.438c1.152,0,2.205-0.398,2.881-1.292h0.06l0.199,1.073h3.139c-0.139-0.676-0.179-1.649-0.179-2.642
		V9.419z"/>
</g>
</svg>
